<svg width="48" height="48" fill="none" xmlns="http://www.w3.org/2000/svg"><rect x="1" y="1" width="46" height="46" rx="23" fill="#fff"/><rect x="1" y="1" width="46" height="46" rx="23" stroke="#303A4D" stroke-width="2"/><path d="M24 12c-4.793 0-8.692 3.9-8.692 8.692 0 5.948 7.779 14.68 8.11 15.048a.783.783 0 0 0 1.164 0c.331-.369 8.11-9.1 8.11-15.048 0-4.793-3.9-8.692-8.692-8.692zm0 13.065a4.378 4.378 0 0 1-4.373-4.373A4.378 4.378 0 0 1 24 16.319a4.378 4.378 0 0 1 4.373 4.373A4.378 4.378 0 0 1 24 25.065z" fill="#303A4D"/></svg>