<svg width="48" height="48" fill="none" xmlns="http://www.w3.org/2000/svg"><rect x="1" y="1" width="46" height="46" rx="23" fill="#fff"/><rect x="1" y="1" width="46" height="46" rx="23" stroke="#303A4D" stroke-width="2"/><path fill-rule="evenodd" clip-rule="evenodd" d="m14.191 15.995 7.024 7.027a3.953 3.953 0 0 0 5.57 0l7.024-7.027a.16.16 0 0 0-.022-.244 4.406 4.406 0 0 0-2.527-.796H16.74c-.939 0-1.81.296-2.527.796a.16.16 0 0 0-.022.244zm-1.877 3.386c0-.739.183-1.436.506-2.05a.16.16 0 0 1 .255-.038l6.935 6.935a5.65 5.65 0 0 0 7.98 0l6.936-6.935a.16.16 0 0 1 .254.038c.323.614.506 1.311.506 2.05v9.238a4.43 4.43 0 0 1-4.426 4.426H16.74a4.43 4.43 0 0 1-4.426-4.426v-9.238z" fill="#303A4D"/></svg>