<svg width="48" height="48" fill="none" xmlns="http://www.w3.org/2000/svg"><rect x="1" y="1" width="46" height="46" rx="23" fill="#fff"/><rect x="1" y="1" width="46" height="46" rx="23" stroke="#303A4D" stroke-width="2"/><g clip-path="url(#a)"><path d="M34.735 29.833c-.997-.996-1.99-1.992-2.987-2.986-.79-.83-1.826-.83-2.657 0-.621.621-1.245 1.243-1.867 1.867-.166.166-.291.166-.498.083-.375-.25-.83-.415-1.205-.664-1.784-1.12-3.319-2.574-4.647-4.235-.664-.83-1.245-1.7-1.66-2.697-.084-.206-.084-.332.083-.498.664-.581 1.245-1.203 1.866-1.744.873-.87.873-1.867 0-2.737-.538-.541-.996-.997-1.491-1.495-.542-.538-1.04-1.036-1.538-1.534-.787-.79-1.827-.79-2.654 0-.624.62-1.246 1.242-1.87 1.866-.58.582-.87 1.286-.953 2.076-.083 1.286.206 2.531.664 3.734.913 2.53 2.325 4.69 4.026 6.723 2.282 2.74 5.062 4.939 8.257 6.476 1.454.664 2.949 1.245 4.524 1.328 1.162.04 2.118-.249 2.906-1.122.538-.581 1.162-1.12 1.7-1.7.831-.874.831-1.91 0-2.74z" fill="#303A4D"/></g><defs><clipPath id="a"><path fill="#fff" transform="translate(12 12)" d="M0 0h24v24H0z"/></clipPath></defs></svg>